<svg width="60" height="60" viewBox="0 0 60 60" fill="none" xmlns="http://www.w3.org/2000/svg">
<rect width="60" height="60" rx="4" fill="#1E1E1E"/>
<g opacity="0.8" clip-path="url(#clip0_382_25)">
<path d="M43.7396 37.3206C43.6414 37.1362 43.1276 36.9854 42.9175 37.0753C39.3962 38.5731 36.7812 41.0918 34.6111 44.3845C39.7857 46.0179 44.7365 47.5797 50.0016 49.242C47.8176 45.0625 45.7978 41.1817 43.7411 37.3221L43.7396 37.3206Z" fill="white"/>
<path d="M42.2028 32.4105C41.3516 32.2048 40.8792 31.8422 40.4988 31.0956C39.0326 28.2112 37.5128 25.3528 36.0113 22.4867C34.0114 18.6668 32.0114 14.8484 29.8704 10.7618C23.1651 23.5792 16.5826 36.1619 10 48.7461C10.0782 48.8162 10.158 48.8848 10.2362 48.9549C21.929 40.5821 34.473 34.5376 49.3881 34.7037C46.9971 33.7468 44.6198 32.9972 42.2028 32.4105ZM24.1176 33.3278C25.9887 29.7441 27.8628 26.1542 29.8673 22.3145C31.5498 25.5249 33.1233 28.5266 34.6816 31.4994C31.1066 32.118 27.6696 32.7137 24.1176 33.3293V33.3278Z" fill="white"/>
</g>
<defs>
<clipPath id="clip0_382_25">
<rect width="40" height="38.481" fill="white" transform="translate(10 10.7595)"/>
</clipPath>
</defs>
</svg>
