<?xml version="1.0" encoding="UTF-8"?>
<svg id="Layer_1" data-name="Layer 1" xmlns="http://www.w3.org/2000/svg" version="1.1" xmlns:xlink="http://www.w3.org/1999/xlink" viewBox="0 0 110 107.2">
  <defs>
    <style>
      .cls-1 {
        fill: url(#linear-gradient);
        stroke-width: 0px;
      }
    </style>
    <linearGradient id="linear-gradient" x1="18.9" y1="14.6" x2="85.6" y2="86.6" gradientUnits="userSpaceOnUse">
      <stop offset="0" stop-color="#7a70ff"/>
      <stop offset=".5" stop-color="#b977fe"/>
      <stop offset="1" stop-color="#f777fe"/>
    </linearGradient>
  </defs>
  <path class="cls-1" d="M98.8,50.5c-.5-7.1-2.8-13.9-6.6-19.9-1.1-1.8-2.4-3.5-3.8-5.1-6.7-7.9-15.9-13.2-26.1-14.9-1.4-.2-2.8-.4-4.2-.5h-6.3c-1.2,0-2.4.2-3.6.4-10.4,1.6-19.9,6.9-26.6,15-1.4,1.6-2.7,3.3-3.8,5.1-3.8,6-6,12.8-6.6,19.9v6.2c.5,7.1,2.8,13.9,6.6,19.9,1.1,1.8,2.4,3.5,3.8,5.1,6.7,7.9,15.9,13.2,26.1,14.9,1.4.2,2.8.4,4.2.5h6.3c1.2,0,2.4-.2,3.6-.4,10.4-1.6,19.9-6.9,26.6-15,1.4-1.6,2.7-3.4,3.8-5.2,3.8-6,6-12.8,6.6-19.8v-6.2ZM92.5,50.5h-12.5c-.5-5.1-1.6-10.1-3.1-15,3.2-.7,6.3-1.6,9.4-2.7,3.6,5.3,5.7,11.3,6.2,17.7h0ZM71.1,70.6c-4.3-.7-8.6-1.2-13-1.3v-12.5h15.6c-.3,4.7-1.2,9.4-2.8,13.8h.1ZM36.4,56.7h15.5v12.5c-4.2.1-8.4.5-12.5,1.2-1.5-4.4-2.5-9.1-3-13.7h0ZM39,36.6c4.2.8,8.5,1.2,12.8,1.3v12.5h-15.6c.3-4.7,1.2-9.4,2.8-13.8h0ZM73.8,50.5h-15.6v-12.5c4.2-.1,8.4-.6,12.5-1.2,1.5,4.5,2.6,9.1,3.1,13.8ZM82.2,27.6c-2.5.8-4.9,1.4-7.3,1.9-1.6-3.8-3.5-7.4-5.8-10.8,4.9,2,9.3,5,12.9,8.8h.2ZM68.6,30.8c-3.5.5-6.9.9-10.4,1v-15.6h1.1c3.8,4.3,6.9,9.3,9.2,14.6h.2ZM51.9,16.1v15.6c-3.5-.1-7-.4-10.5-.9,2.5-5.3,5.8-10.1,9.8-14.4l.7-.2ZM41.3,18.6c-2.4,3.4-4.5,7-6.2,10.8-2.5-.5-4.8-1.2-7.1-1.9,3.8-3.9,8.3-6.9,13.3-8.8h0ZM23.7,32.8c2.8,1,5.8,1.8,9,2.6-1.6,4.9-2.5,9.9-2.8,15.1h-12.5c.5-6.3,2.7-12.4,6.2-17.7h0ZM17.5,56.7h12.5c.5,5.1,1.6,10.1,3.1,15-3.2.7-6.3,1.6-9.4,2.7-3.6-5.2-5.7-11.3-6.2-17.7h0ZM27.9,79.6c2.3-.7,4.8-1.4,7.3-1.9,1.6,3.8,3.5,7.4,5.8,10.8-4.9-2-9.3-5-12.9-8.8h-.1ZM41.4,76.5c3.5-.5,6.9-.9,10.4-1v15.6h-1.1c-3.8-4.4-6.9-9.3-9.2-14.6h-.1ZM58.1,91.1v-15.6c3.5.1,7,.4,10.4,1-2.5,5.3-5.8,10.1-9.8,14.4l-.7.3ZM68.7,88.6c2.4-3.4,4.5-7,6.2-10.8,2.3.5,4.7,1.1,7.1,1.9-3.8,3.9-8.3,6.9-13.4,8.8h0ZM86.2,74.4c-3-1-6-1.9-9.1-2.6,1.6-4.9,2.5-10,2.8-15.1h12.5c-.5,6.3-2.7,12.4-6.2,17.7h0Z"/>
</svg>